<svg width="480" height="60" viewBox="0 0 480 60" fill="none" xmlns="http://www.w3.org/2000/svg">
<path d="M15.6638 1.43701H2.27728V58.5631H15.6638V1.43701Z" fill="white"/>
<path d="M33.563 13.1345H51.2353V58.5631H64.6974V13.1345H82.3697V1.43701H33.563V13.1345Z" fill="white"/>
<path d="M155.655 46.0588C153.538 46.916 151.067 47.3445 148.269 47.3445C145.899 47.3445 143.706 46.9412 141.689 46.1345C139.672 45.3277 137.933 44.1681 136.496 42.6303C135.034 41.0924 133.924 39.2773 133.118 37.1345C132.311 35.0168 131.908 32.6218 131.908 30C131.908 27.3529 132.286 24.9832 133.067 22.8655C133.849 20.7479 134.983 18.9076 136.445 17.3697C137.933 15.8319 139.647 14.6723 141.639 13.8655C143.63 13.0588 145.823 12.6555 148.244 12.6555C150.992 12.6555 153.386 13.1092 155.454 13.9916C157.521 14.874 159.286 16.1345 160.748 17.7479L169.697 8.72269C167.05 6.20168 163.95 4.21009 160.344 2.7479C156.739 1.28572 152.706 0.579834 148.244 0.579834C143.983 0.579834 140.05 1.33614 136.395 2.84874C132.739 4.36135 129.538 6.42857 126.84 9.05042C124.118 11.6975 122 14.7983 120.462 18.3782C118.924 21.958 118.168 25.8403 118.168 30.0252C118.168 34.1597 118.924 38.042 120.437 41.6471C121.95 45.2521 124.067 48.3781 126.815 51.0504C129.563 53.7227 132.765 55.7899 136.445 57.2521C140.126 58.7395 144.109 59.4706 148.42 59.4706C153.109 59.4706 157.193 58.7647 160.672 57.3277C164.176 55.916 167.277 53.9244 170.025 51.4034L161 42.4538C159.588 43.9916 157.798 45.2017 155.655 46.0588Z" fill="white"/>
<path d="M223.218 33.0756C226.168 31.689 228.462 29.7227 230.126 27.2269C231.765 24.7311 232.597 21.7815 232.597 18.4033C232.597 15.126 231.765 12.2269 230.126 9.68065C228.487 7.15964 226.218 5.14283 223.344 3.68065C220.471 2.19325 217.118 1.46216 213.311 1.46216H203.076H200.101H189.689V58.5882H203.076V35.1932H204.185L220.647 58.5882H236.302L218.328 34.689C220.092 34.3109 221.731 33.7815 223.218 33.0756ZM203.05 11.6975H211.597C214.067 11.6975 215.958 12.3529 217.294 13.6386C218.605 14.9243 219.26 16.563 219.26 18.5546C219.26 20.6975 218.605 22.4117 217.294 23.647C215.983 24.8823 214.067 25.5126 211.597 25.5126H203.05V11.6975Z" fill="white"/>
<path d="M385.571 36.4286L375.26 1.43701H364.672L354.311 36.4034L343.874 1.43701H330.563L348.866 58.5631H359.429L369.916 23.3446L380.403 58.5631H390.992L409.218 1.43701H396.134L385.571 36.4286Z" fill="white"/>
<path d="M476.05 18.5042C474.538 15.0252 472.42 12.0252 469.672 9.47896C466.924 6.93275 463.723 4.94115 460.067 3.5546C456.412 2.16804 452.403 1.46216 448.042 1.46216H438.361H433.445H424.975V58.5882H434H438.361H448.193C452.504 58.5882 456.462 57.9075 460.143 56.521C463.798 55.1596 466.975 53.1932 469.697 50.6218C472.42 48.0756 474.513 45.0504 476.025 41.5966C477.538 38.1176 478.294 34.2605 478.294 30.0252C478.294 25.8151 477.538 21.9832 476.05 18.5042ZM462.538 39.0756C461.176 41.6218 459.235 43.5882 456.739 44.9243C454.244 46.2605 451.319 46.9411 447.992 46.9411H438.387V13.0588H447.992C451.319 13.0588 454.244 13.7395 456.739 15.126C459.235 16.4874 461.176 18.4285 462.538 20.8991C463.899 23.3697 464.605 26.3949 464.605 29.9243C464.605 33.4538 463.899 36.5294 462.538 39.0756Z" fill="white"/>
<path d="M285.134 22.3866C298.723 22.3866 310.294 13.7143 314.655 1.63867H299.681C296.403 6.12607 291.109 9.02523 285.134 9.02523C279.16 9.02523 273.865 6.10086 270.588 1.63867H255.613C259.975 13.7395 271.546 22.3866 285.134 22.3866Z" fill="white"/>
<path d="M285.134 27.1765C267.84 27.1765 253.748 41.269 253.748 58.5631H267.109C267.109 48.6303 275.202 40.5379 285.134 40.5379C295.067 40.5379 303.16 48.6303 303.16 58.5631H316.521C316.521 41.2437 302.429 27.1765 285.134 27.1765Z" fill="white"/>
</svg>
